<svg width="112" height="46" viewBox="0 0 112 46" fill="none" xmlns="http://www.w3.org/2000/svg">
<path d="M69.8603 6.7189C66.5172 6.19057 62.9546 5.9054 59.2576 5.9054C40.0181 5.9054 24.4213 13.6285 24.4213 23.1554C24.4213 32.6823 40.0181 40.4054 59.2576 40.4054C62.6655 40.4054 65.9591 40.1631 69.072 39.7114C61.7366 43.6095 51.8361 46 40.9416 46C18.3302 46 0 35.7025 0 23C0 10.2975 18.3302 0 40.9416 0C52.2314 0 62.4538 2.56709 69.8603 6.7189Z" fill="#FD8900"/>
<path d="M44.5455 35.3636C42.9697 35.3636 41.5871 34.9886 40.3977 34.2386C39.2159 33.4886 38.2917 32.4394 37.625 31.0909C36.9659 29.7424 36.6364 28.1667 36.6364 26.3636C36.6364 24.5455 36.9659 22.9583 37.625 21.6023C38.2917 20.2462 39.2159 19.1932 40.3977 18.4432C41.5871 17.6932 42.9697 17.3182 44.5455 17.3182C46.1212 17.3182 47.5 17.6932 48.6818 18.4432C49.8712 19.1932 50.7955 20.2462 51.4545 21.6023C52.1212 22.9583 52.4545 24.5455 52.4545 26.3636C52.4545 28.1667 52.1212 29.7424 51.4545 31.0909C50.7955 32.4394 49.8712 33.4886 48.6818 34.2386C47.5 34.9886 46.1212 35.3636 44.5455 35.3636ZM44.5455 32.9545C45.7424 32.9545 46.7273 32.6477 47.5 32.0341C48.2727 31.4205 48.8447 30.6136 49.2159 29.6136C49.5871 28.6136 49.7727 27.5303 49.7727 26.3636C49.7727 25.197 49.5871 24.1098 49.2159 23.1023C48.8447 22.0947 48.2727 21.2803 47.5 20.6591C46.7273 20.0379 45.7424 19.7273 44.5455 19.7273C43.3485 19.7273 42.3636 20.0379 41.5909 20.6591C40.8182 21.2803 40.2462 22.0947 39.875 23.1023C39.5038 24.1098 39.3182 25.197 39.3182 26.3636C39.3182 27.5303 39.5038 28.6136 39.875 29.6136C40.2462 30.6136 40.8182 31.4205 41.5909 32.0341C42.3636 32.6477 43.3485 32.9545 44.5455 32.9545ZM63.5938 41.9091C62.2983 41.9091 61.1847 41.7424 60.2528 41.4091C59.321 41.0833 58.5445 40.6515 57.9233 40.1136C57.3097 39.5833 56.821 39.0152 56.4574 38.4091L58.5938 36.9091C58.8362 37.2273 59.143 37.5909 59.5142 38C59.8854 38.4167 60.393 38.7765 61.0369 39.0795C61.6884 39.3902 62.5407 39.5455 63.5938 39.5455C65.0028 39.5455 66.1657 39.2045 67.0824 38.5227C67.9991 37.8409 68.4574 36.7727 68.4574 35.3182V31.7727H68.2301C68.0331 32.0909 67.7528 32.4848 67.3892 32.9545C67.0331 33.4167 66.518 33.8295 65.8438 34.1932C65.1771 34.5492 64.2756 34.7273 63.1392 34.7273C61.7301 34.7273 60.465 34.3939 59.3438 33.7273C58.2301 33.0606 57.3475 32.0909 56.696 30.8182C56.0521 29.5455 55.7301 28 55.7301 26.1818C55.7301 24.3939 56.0445 22.8371 56.6733 21.5114C57.3021 20.178 58.1771 19.1477 59.2983 18.4205C60.4195 17.6856 61.715 17.3182 63.1847 17.3182C64.321 17.3182 65.2225 17.5076 65.8892 17.8864C66.5634 18.2576 67.0786 18.6818 67.4347 19.1591C67.7983 19.6288 68.0786 20.0152 68.2756 20.3182H68.5483V17.5455H71.1392V35.5C71.1392 37 70.7983 38.2197 70.1165 39.1591C69.4422 40.1061 68.5331 40.7992 67.3892 41.2386C66.2528 41.6856 64.9877 41.9091 63.5938 41.9091ZM63.5028 32.3182C64.5786 32.3182 65.4877 32.072 66.2301 31.5795C66.9725 31.0871 67.5369 30.3788 67.9233 29.4545C68.3097 28.5303 68.5028 27.4242 68.5028 26.1364C68.5028 24.8788 68.3134 23.7689 67.9347 22.8068C67.5559 21.8447 66.9953 21.0909 66.2528 20.5455C65.5104 20 64.5938 19.7273 63.5028 19.7273C62.3665 19.7273 61.4195 20.0152 60.6619 20.5909C59.9119 21.1667 59.3475 21.9394 58.9688 22.9091C58.5975 23.8788 58.4119 24.9545 58.4119 26.1364C58.4119 27.3485 58.6013 28.4205 58.9801 29.3523C59.3665 30.2765 59.9347 31.0038 60.6847 31.5341C61.4422 32.0568 62.3816 32.3182 63.5028 32.3182ZM76.0483 35V17.5455H78.7301V35H76.0483ZM77.4119 14.6364C76.8892 14.6364 76.4384 14.4583 76.0597 14.1023C75.6884 13.7462 75.5028 13.3182 75.5028 12.8182C75.5028 12.3182 75.6884 11.8902 76.0597 11.5341C76.4384 11.178 76.8892 11 77.4119 11C77.9347 11 78.3816 11.178 78.7528 11.5341C79.1316 11.8902 79.321 12.3182 79.321 12.8182C79.321 13.3182 79.1316 13.7462 78.7528 14.1023C78.3816 14.4583 77.9347 14.6364 77.4119 14.6364ZM91.233 17.5455V19.8182H82.1875V17.5455H91.233ZM84.8239 13.3636H87.5057V30C87.5057 30.7576 87.6155 31.3258 87.8352 31.7045C88.0625 32.0758 88.3504 32.3258 88.6989 32.4545C89.0549 32.5758 89.4299 32.6364 89.8239 32.6364C90.1193 32.6364 90.3617 32.6212 90.5511 32.5909C90.7405 32.553 90.892 32.5227 91.0057 32.5L91.5511 34.9091C91.3693 34.9773 91.1155 35.0455 90.7898 35.1136C90.464 35.1894 90.0511 35.2273 89.5511 35.2273C88.7936 35.2273 88.0511 35.0644 87.3239 34.7386C86.6042 34.4129 86.0057 33.9167 85.5284 33.25C85.0587 32.5833 84.8239 31.7424 84.8239 30.7273V13.3636ZM102.17 35.3636C100.595 35.3636 99.2121 34.9886 98.0227 34.2386C96.8409 33.4886 95.9167 32.4394 95.25 31.0909C94.5909 29.7424 94.2614 28.1667 94.2614 26.3636C94.2614 24.5455 94.5909 22.9583 95.25 21.6023C95.9167 20.2462 96.8409 19.1932 98.0227 18.4432C99.2121 17.6932 100.595 17.3182 102.17 17.3182C103.746 17.3182 105.125 17.6932 106.307 18.4432C107.496 19.1932 108.42 20.2462 109.08 21.6023C109.746 22.9583 110.08 24.5455 110.08 26.3636C110.08 28.1667 109.746 29.7424 109.08 31.0909C108.42 32.4394 107.496 33.4886 106.307 34.2386C105.125 34.9886 103.746 35.3636 102.17 35.3636ZM102.17 32.9545C103.367 32.9545 104.352 32.6477 105.125 32.0341C105.898 31.4205 106.47 30.6136 106.841 29.6136C107.212 28.6136 107.398 27.5303 107.398 26.3636C107.398 25.197 107.212 24.1098 106.841 23.1023C106.47 22.0947 105.898 21.2803 105.125 20.6591C104.352 20.0379 103.367 19.7273 102.17 19.7273C100.973 19.7273 99.9886 20.0379 99.2159 20.6591C98.4432 21.2803 97.8712 22.0947 97.5 23.1023C97.1288 24.1098 96.9432 25.197 96.9432 26.3636C96.9432 27.5303 97.1288 28.6136 97.5 29.6136C97.8712 30.6136 98.4432 31.4205 99.2159 32.0341C99.9886 32.6477 100.973 32.9545 102.17 32.9545Z" fill="#256E19"/>
</svg>
