<svg width="233" height="201" viewBox="0 0 233 201" fill="none" xmlns="http://www.w3.org/2000/svg">
<g clip-path="url(#clip0_1191_2387)">
<path d="M17.496 184.456C18.8386 184.93 20.2801 185.049 21.6816 184.801C23.0832 184.553 24.3976 183.946 25.4981 183.039C28.3008 180.674 29.1798 176.779 29.8946 173.171L32.0094 162.5L27.5818 165.565C24.3975 167.769 21.1417 170.044 18.9372 173.236C16.7326 176.429 15.7708 180.787 17.5416 184.241" fill="#E6E6E6"/>
<path d="M18.1795 198.118C17.6222 194.036 17.0488 189.902 17.4407 185.777C17.7879 182.113 18.8998 178.535 21.1635 175.6C22.365 174.045 23.8271 172.713 25.484 171.664C25.9159 171.39 26.3135 172.078 25.8835 172.351C23.0166 174.172 20.7991 176.862 19.5508 180.032C18.1721 183.557 17.9507 187.4 18.1882 191.145C18.3317 193.409 18.6367 195.659 18.9431 197.906C18.9673 198.008 18.9522 198.115 18.9008 198.205C18.8495 198.296 18.7658 198.364 18.6666 198.395C18.5654 198.423 18.4575 198.409 18.3663 198.357C18.2752 198.305 18.2082 198.219 18.1797 198.117L18.1795 198.118Z" fill="#F2F2F2"/>
<path d="M22.1914 191.569C22.7671 192.449 23.5586 193.165 24.4896 193.648C25.4205 194.131 26.4596 194.365 27.5066 194.327C30.198 194.199 32.4409 192.311 34.4597 190.519L40.4322 185.217L36.4795 185.027C33.6369 184.89 30.721 184.762 28.0135 185.644C25.306 186.526 22.8091 188.646 22.3141 191.464" fill="#E6E6E6"/>
<path d="M16.6048 200.464C19.2877 195.692 22.3995 190.388 27.9601 188.693C29.5061 188.223 31.1271 188.055 32.736 188.197C33.2431 188.241 33.1165 189.027 32.6104 188.983C29.9135 188.758 27.2218 189.474 24.9885 191.01C22.8393 192.481 21.1659 194.525 19.7498 196.693C18.8822 198.021 18.1051 199.406 17.328 200.788C17.0797 201.23 16.3536 200.911 16.6048 200.464Z" fill="#F2F2F2"/>
<path d="M231.28 141.55H83.3657C82.9099 141.549 82.473 141.367 82.1507 141.043C81.8284 140.719 81.6471 140.28 81.6465 139.821V1.72832C81.6471 1.27013 81.8284 0.830868 82.1507 0.506875C82.473 0.182882 82.9099 0.000598976 83.3657 0H231.28C231.736 0.000598976 232.173 0.182882 232.495 0.506875C232.818 0.830868 232.999 1.27013 233 1.72832V139.821C232.999 140.279 232.818 140.719 232.495 141.043C232.173 141.367 231.736 141.549 231.28 141.55ZM83.3657 0.689967C83.0925 0.690563 82.8307 0.799916 82.6376 0.99409C82.4444 1.18826 82.3357 1.45145 82.3351 1.72605V139.821C82.3357 140.096 82.4444 140.359 82.6376 140.553C82.8307 140.747 83.0925 140.857 83.3657 140.857H231.28C231.554 140.857 231.815 140.747 232.009 140.553C232.202 140.359 232.311 140.096 232.311 139.821V1.72832C232.31 1.45372 232.202 1.19053 232.008 0.996358C231.815 0.802184 231.554 0.692831 231.28 0.692235L83.3657 0.689967Z" fill="#CACACA"/>
<path d="M153.259 35.884C152.95 35.8845 152.653 36.0084 152.435 36.2283C152.216 36.4483 152.094 36.7465 152.094 37.0573C152.094 37.3682 152.216 37.6663 152.435 37.8863C152.653 38.1063 152.95 38.2302 153.259 38.2307H217.304C217.613 38.2302 217.909 38.1063 218.128 37.8863C218.346 37.6663 218.469 37.3682 218.469 37.0573C218.469 36.7465 218.346 36.4483 218.128 36.2283C217.909 36.0084 217.613 35.8845 217.304 35.884H153.259Z" fill="#E4E4E4"/>
<path d="M153.258 42.9248C152.949 42.9256 152.653 43.0495 152.435 43.2695C152.216 43.4894 152.094 43.7875 152.094 44.0982C152.094 44.4089 152.216 44.7069 152.435 44.9269C152.653 45.1468 152.949 45.2708 153.258 45.2715H185.954C186.263 45.2708 186.56 45.1468 186.778 44.9269C186.996 44.7069 187.119 44.4089 187.119 44.0982C187.119 43.7875 186.996 43.4894 186.778 43.2695C186.56 43.0495 186.263 42.9256 185.954 42.9248H153.258Z" fill="#E4E4E4"/>
<path d="M97.2815 80.788C96.9725 80.7888 96.6763 80.9127 96.458 81.1327C96.2398 81.3527 96.1172 81.6507 96.1172 81.9614C96.1172 82.2721 96.2398 82.5701 96.458 82.7901C96.6763 83.0101 96.9725 83.134 97.2815 83.1348H217.366C217.675 83.134 217.971 83.0101 218.19 82.7901C218.408 82.5701 218.53 82.2721 218.53 81.9614C218.53 81.6507 218.408 81.3527 218.19 81.1327C217.971 80.9127 217.675 80.7888 217.366 80.788H97.2815Z" fill="#E4E4E4"/>
<path d="M97.2815 87.8289C96.9725 87.8296 96.6763 87.9536 96.458 88.1735C96.2398 88.3935 96.1172 88.6915 96.1172 89.0022C96.1172 89.3129 96.2398 89.6109 96.458 89.8309C96.6763 90.0509 96.9725 90.1748 97.2815 90.1756H186.017C186.326 90.1748 186.623 90.0509 186.841 89.8309C187.059 89.6109 187.182 89.3129 187.182 89.0022C187.182 88.6915 187.059 88.3935 186.841 88.1735C186.623 87.9536 186.326 87.8296 186.017 87.8289H97.2815Z" fill="#E4E4E4"/>
<path d="M97.2815 94.7104C96.9725 94.7111 96.6763 94.8351 96.458 95.0551C96.2398 95.275 96.1172 95.573 96.1172 95.8837C96.1172 96.1945 96.2398 96.4925 96.458 96.7124C96.6763 96.9324 96.9725 97.0564 97.2815 97.0571H217.366C217.675 97.0564 217.971 96.9324 218.19 96.7124C218.408 96.4925 218.53 96.1945 218.53 95.8837C218.53 95.573 218.408 95.275 218.19 95.0551C217.971 94.8351 217.675 94.7111 217.366 94.7104H97.2815Z" fill="#E4E4E4"/>
<path d="M97.2815 101.751C96.9725 101.752 96.6763 101.876 96.458 102.096C96.2398 102.316 96.1172 102.614 96.1172 102.925C96.1172 103.235 96.2398 103.533 96.458 103.753C96.6763 103.973 96.9725 104.097 97.2815 104.098H186.017C186.326 104.097 186.623 103.973 186.841 103.753C187.059 103.533 187.182 103.235 187.182 102.925C187.182 102.614 187.059 102.316 186.841 102.096C186.623 101.876 186.326 101.752 186.017 101.751H97.2815Z" fill="#E4E4E4"/>
<path d="M97.2815 108.816C96.9725 108.817 96.6763 108.941 96.458 109.161C96.2398 109.381 96.1172 109.679 96.1172 109.989C96.1172 110.3 96.2398 110.598 96.458 110.818C96.6763 111.038 96.9725 111.162 97.2815 111.163H217.366C217.675 111.162 217.971 111.038 218.19 110.818C218.408 110.598 218.53 110.3 218.53 109.989C218.53 109.679 218.408 109.381 218.19 109.161C217.971 108.941 217.675 108.817 217.366 108.816H97.2815Z" fill="#E4E4E4"/>
<path d="M97.2815 115.857C96.9725 115.858 96.6763 115.982 96.458 116.202C96.2398 116.422 96.1172 116.72 96.1172 117.03C96.1172 117.341 96.2398 117.639 96.458 117.859C96.6763 118.079 96.9725 118.203 97.2815 118.204H186.017C186.326 118.203 186.623 118.079 186.841 117.859C187.059 117.639 187.182 117.341 187.182 117.03C187.182 116.72 187.059 116.422 186.841 116.202C186.623 115.982 186.326 115.858 186.017 115.857H97.2815Z" fill="#E4E4E4"/>
<path d="M116.301 57.4357C112.985 57.4357 109.743 56.4471 106.985 54.5947C104.227 52.7423 102.078 50.1095 100.809 47.0291C99.5395 43.9487 99.2074 40.5591 99.8544 37.2889C100.501 34.0188 102.099 31.015 104.444 28.6573C106.789 26.2996 109.777 24.6941 113.03 24.0436C116.283 23.3931 119.654 23.7269 122.718 25.0029C125.783 26.2788 128.402 28.4395 130.244 31.2118C132.087 33.9841 133.07 37.2435 133.07 40.5777C133.065 45.0471 131.297 49.332 128.153 52.4924C125.01 55.6528 120.747 57.4306 116.301 57.4357Z" fill="#01A05D"/>
<path d="M65.3985 121.177C65.3695 120.562 65.2067 119.96 64.9214 119.415C64.6362 118.87 64.2356 118.394 63.7477 118.021C63.2598 117.649 62.6965 117.388 62.0976 117.258C61.4987 117.128 60.8787 117.131 60.2812 117.268L54.7384 109.415L49.1699 111.637L57.1524 122.617C57.4475 123.61 58.0949 124.461 58.972 125.007C59.8492 125.553 60.895 125.756 61.9115 125.579C62.9279 125.401 63.8443 124.855 64.487 124.044C65.1297 123.233 65.454 122.213 65.3985 121.177Z" fill="#A0616A"/>
<path d="M54.5959 120.595L37.8242 98.7217L44.1084 78.8667C44.5689 73.8749 47.6761 72.481 47.8083 72.424L48.01 72.337L53.4784 86.9973L49.4633 97.761L59.3183 114.424L54.5959 120.595Z" fill="#3F3D56"/>
<path d="M112.841 53.1668C112.233 53.2434 111.649 53.4531 111.13 53.7812C110.611 54.1092 110.171 54.5476 109.839 55.0654C109.507 55.5832 109.292 56.1679 109.209 56.7782C109.126 57.3886 109.178 58.0098 109.359 58.5981L102 64.7608L104.635 70.1702L114.906 61.3205C115.869 60.9479 116.662 60.2333 117.136 59.3119C117.609 58.3905 117.73 57.3265 117.476 56.3215C117.221 55.3164 116.609 54.4401 115.754 53.8587C114.9 53.2773 113.863 53.0311 112.841 53.1668Z" fill="#A0616A"/>
<path d="M113.099 64.0393L92.7034 82.5408L72.5264 77.7772C67.5402 77.7016 65.9176 74.6951 65.8509 74.5669L65.749 74.3715L79.8654 67.757L90.8507 70.9492L106.614 59.7833L113.099 64.0393Z" fill="#3F3D56"/>
<path d="M77.7696 195.566L83.2496 195.565L85.8564 174.316L77.7686 174.316L77.7696 195.566Z" fill="#A0616A"/>
<path d="M93.8184 200.681L76.5955 200.681L76.5952 193.992L88.9861 193.991C90.2676 193.991 91.4967 194.503 92.4029 195.414C93.3091 196.325 93.8182 197.56 93.8183 198.849L93.8184 200.681Z" fill="#2F2E41"/>
<path d="M55.8669 195.566L61.3469 195.565L63.954 174.316L55.8662 174.316L55.8669 195.566Z" fill="#A0616A"/>
<path d="M71.916 200.681L54.6932 200.681L54.6929 193.992L67.0838 193.991C67.7183 193.991 68.3467 194.117 68.9329 194.361C69.5192 194.605 70.0518 194.963 70.5005 195.414C70.9493 195.865 71.3052 196.4 71.548 196.99C71.7909 197.579 71.9159 198.211 71.9159 198.849L71.916 200.681Z" fill="#2F2E41"/>
<path d="M53.918 118.003L54.3649 149.458L54.8122 190.8L64.6457 189.901L69.5628 132.832L75.8207 189.901H85.9728L86.9954 132.383L83.4195 119.801L53.918 118.003Z" fill="#2F2E41"/>
<path d="M73.1652 122.227C62.4655 122.228 52.6164 117.36 52.4835 117.293L52.373 117.237L51.4751 95.5743C51.2147 94.8087 46.0876 79.7033 45.2192 74.9021C44.3394 70.0378 57.0905 65.7687 58.6389 65.2695L58.9903 61.3563L73.2795 59.8084L75.0905 64.8154L80.2168 66.7479C80.798 66.9671 81.279 67.3931 81.5686 67.945C81.8583 68.4969 81.9365 69.1365 81.7884 69.7425L78.9392 81.3904L85.8978 119.927L84.3997 119.993C80.8088 121.623 76.9332 122.227 73.1652 122.227Z" fill="#3F3D56"/>
<path d="M71.6296 56.0625C76.6153 53.3226 78.4476 47.0383 75.7221 42.0261C72.9967 37.0139 66.7456 35.1719 61.7599 37.9118C56.7741 40.6517 54.9418 46.936 57.6673 51.9482C60.3927 56.9604 66.6439 58.8024 71.6296 56.0625Z" fill="#A0616A"/>
<path d="M58.3615 56.9999C60.3222 59.0995 63.9634 57.9724 64.2189 55.104C64.239 54.8813 64.2375 54.6571 64.2146 54.4347C64.0827 53.1641 63.3525 52.0106 63.5274 50.669C63.567 50.3352 63.6907 50.017 63.8869 49.7446C65.4493 47.6413 69.117 50.6854 70.5915 48.7813C71.4957 47.6138 70.4329 45.7755 71.1267 44.4706C72.0425 42.7483 74.7549 43.5979 76.4559 42.6547C78.3485 41.6053 78.2353 38.6861 76.9895 36.9106C75.4702 34.7452 72.8063 33.5897 70.1756 33.4232C67.545 33.2567 64.9324 33.9716 62.4765 34.9338C59.686 36.027 56.9188 37.5379 55.2016 40.0046C53.1133 43.0044 52.9123 47.0373 53.9567 50.5449C54.5921 52.6787 56.7604 55.2853 58.3615 56.9999Z" fill="#2F2E41"/>
<path d="M130.73 200.947H0.342225C0.251461 200.947 0.16441 200.911 0.10023 200.846C0.0360503 200.782 0 200.694 0 200.603C0 200.512 0.0360503 200.424 0.10023 200.36C0.16441 200.295 0.251461 200.259 0.342225 200.259H130.73C130.821 200.259 130.908 200.295 130.972 200.36C131.036 200.424 131.072 200.512 131.072 200.603C131.072 200.694 131.036 200.782 130.972 200.846C130.908 200.911 130.821 200.947 130.73 200.947Z" fill="#CACACA"/>
<path d="M115.333 46.945C115.03 46.9453 114.739 46.8303 114.518 46.6231L108.988 41.46C108.756 41.2425 108.619 40.9413 108.607 40.6223C108.596 40.3034 108.711 39.9929 108.927 39.7591C109.143 39.5252 109.442 39.3872 109.759 39.3752C110.077 39.3633 110.386 39.4784 110.618 39.6954L115.302 44.0688L124.568 34.7535C124.679 34.641 124.811 34.5516 124.957 34.4905C125.102 34.4295 125.259 34.3979 125.416 34.3976C125.574 34.3973 125.73 34.4283 125.876 34.4888C126.022 34.5494 126.154 34.6382 126.265 34.7504C126.377 34.8625 126.465 34.9956 126.526 35.1421C126.586 35.2886 126.617 35.4457 126.616 35.6042C126.616 35.7627 126.584 35.9196 126.524 36.0659C126.463 36.2122 126.374 36.3449 126.262 36.4566L116.18 46.5924C116.069 46.7043 115.937 46.7931 115.791 46.8536C115.646 46.9141 115.49 46.9451 115.333 46.945Z" fill="white"/>
</g>
<defs>
<clipPath id="clip0_1191_2387">
<rect width="233" height="201" fill="white"/>
</clipPath>
</defs>
</svg>
